<?xml version="1.0" encoding="UTF-8" standalone="no"?>
<svg
   xmlns:dc="http://purl.org/dc/elements/1.1/"
   xmlns:cc="http://creativecommons.org/ns#"
   xmlns:rdf="http://www.w3.org/1999/02/22-rdf-syntax-ns#"
   xmlns:svg="http://www.w3.org/2000/svg"
   xmlns="http://www.w3.org/2000/svg"
   viewBox="0 0 850.39368 705.82678"
   id="svg11"
   height="705.82678"
   width="850.39368"
   version="1.1">
  <metadata
     id="metadata17">
    <rdf:RDF>
      <cc:Work
         rdf:about="">
        <dc:format>image/svg+xml</dc:format>
        <dc:type
           rdf:resource="http://purl.org/dc/dcmitype/StillImage" />
      </cc:Work>
    </rdf:RDF>
  </metadata>
  <defs
     id="defs15" />
  <g
     id="Layer1000">
    <path
       id="path2"
       style="fill:#ffffff;fill-rule:evenodd"
       d="m 107.2947,696.6288 h 28.9055 L 87.4927,537.3055 H 87.2654 56.083 L 7.3754,696.6288 H 36.2809 L 44.7026,667.496 H 98.8731 Z M 52.6697,640.8653 71.7878,575.0872 90.906,640.8653 Z M 267.9838,537.3055 223.3734,615.8297 178.763,537.3055 H 149.8575 V 696.6288 H 178.763 V 596.4822 l 44.6104,75.111 44.6104,-75.111 v 100.1466 h 28.9055 V 537.3055 Z m 51.6683,0 h 28.9055 v 159.3233 h -28.9055 z m 159.5506,159.3233 -30.7278,-63.0467 c 13.8845,-6.8286 23.8992,-19.802 23.8992,-44.1558 v -1.8203 c 0,-41.1971 -28.9055,-50.3005 -56.4453,-50.3005 h -44.6104 v 159.3233 h 28.9055 v -56.9019 h 15.7049 c 1.8203,0 3.8678,0 5.6902,-0.2273 l 26.174,57.1292 z m -78.9788,-83.5305 v -49.1642 h 15.7049 c 17.0706,0 27.5398,5.2356 27.5398,22.988 v 3.1881 c 0,17.7524 -10.4692,22.9881 -27.5398,22.9881 z m 83.5306,40.7404 c 0,34.823 32.7754,43.9286 55.7634,43.9286 22.9881,0 52.5775,-7.5105 52.5775,-43.0174 0,-22.9881 -12.5188,-34.5957 -36.6453,-48.253 -26.1741,-14.7937 -38.2384,-20.9405 -38.2384,-30.9552 0,-7.7377 6.1468,-12.744 18.893,-12.744 17.7524,0 22.5314,10.9238 22.5314,26.4013 l 28.9055,-4.5517 v -4.5518 c 0,-33.6866 -27.3125,-43.9285 -50.3006,-43.9285 -22.988,0 -48.9348,9.7874 -48.9348,40.0586 0,21.3951 9.3328,32.5482 41.6516,50.0733 22.9881,12.5189 33.23,17.0706 33.23,29.5894 0,8.8763 -7.7377,15.2483 -22.988,15.2483 -19.8,0 -27.5398,-8.649 -27.5398,-25.0356 v -5.2357 l -28.9055,4.5518 z m 176.3939,43.9286 c -29.8167,0 -52.1209,-11.3804 -52.1209,-50.3006 v -60.9991 c 0,-38.9202 22.3042,-50.3006 52.1209,-50.3006 29.8167,0 51.8935,11.3804 51.8935,50.3006 v 60.9991 c 0,38.9202 -22.0768,50.3006 -51.8935,50.3006 z m 0,-26.6307 c 12.9734,0 22.988,-4.0972 22.988,-24.1265 v -60.088 c 0,-20.0293 -10.0146,-24.1244 -22.988,-24.1244 -12.9734,0 -23.2153,4.0951 -23.2153,24.1244 v 60.088 c 0,20.0293 10.2419,24.1265 23.2153,24.1265 z m 150.6744,-134.0584 -33.6846,66.2327 -33.6866,-66.0054 h -31.4097 l 50.7572,95.5927 v 63.7306 h 28.9055 v -63.7306 l 50.5279,-95.82 z" />
    <path
       id="path4"
       style="fill:#ffffff;fill-rule:evenodd"
       d="M 294.3311,206.4145 C 235.0832,116.0101 47.2223,386.2821 33.4364,442.4722 c 47.3023,10.9787 63.3078,-29.1194 101.7646,-6.0594 22.6128,13.5565 35.4411,15.5162 78.5782,-8.478 36.2161,-20.1474 70.3272,22.5823 70.3272,22.5823 C 323.3546,336.8069 569.4403,344.524 496.5141,274.3419 457.2285,236.5314 508.9116,196.6956 576.4737,187.4191 568.6021,147.1408 472.9695,43.4258 432.4828,43.4258 c -40.4867,0 -123.5018,87.8289 -138.1517,162.9887 z" />
    <path
       id="path6"
       style="fill:#ffffff;fill-rule:evenodd"
       d="M 831.5296,442.4714 C 821.2474,403.1115 691.443,247.8779 598.0899,209.0308 c -30.674,7.7053 -100.3147,32.5991 -53.9732,62.6169 78.0494,50.5579 -99.4745,89.2286 -127.9962,178.8951 85.4649,21.7828 129.5954,-52.7133 198.331,-13.6719 68.7356,39.0415 156.6566,-58.1843 217.0781,5.6005 z" />
    <path
       id="path8"
       style="fill:#ffffff;fill-rule:evenodd"
       d="m 260.7229,10.2432 c 28.8201,0 52.1844,23.3644 52.1844,52.1844 0,28.8176 -23.3643,52.1819 -52.1844,52.1819 -28.8176,0 -52.1819,-23.3643 -52.1819,-52.1819 0,-28.82 23.3643,-52.1844 52.1819,-52.1844 z" />
  </g>
</svg>
